<?xml version="1.0" standalone="no"?>
<!DOCTYPE svg PUBLIC "-//W3C//DTD SVG 20010904//EN"
 "http://www.w3.org/TR/2001/REC-SVG-20010904/DTD/svg10.dtd">
<svg version="1.0" xmlns="http://www.w3.org/2000/svg"
 width="1616.000000pt" height="1616.000000pt" viewBox="0 0 1616.000000 1616.000000"
 preserveAspectRatio="xMidYMid meet">
<metadata>
Created by potrace 1.11, written by Peter Selinger 2001-2013
</metadata>
<g transform="translate(0.000000,1616.000000) scale(0.100000,-0.100000)"
fill="#000000" stroke="none">
<path d="M1748 10674 c-2 -2 -22 -6 -45 -8 -94 -12 -217 -80 -294 -163 -68
-72 -128 -223 -125 -316 0 -26 -1 -47 -4 -47 -4 0 -4 -128 1 -140 1 -3 0 -9
-1 -15 -5 -25 -3 -95 2 -101 4 -3 3 -16 -2 -29 -5 -13 -7 -25 -4 -27 4 -5 4
-22 3 -158 0 -30 0 -60 1 -65 1 -6 2 -12 1 -15 -7 -17 -4 -150 2 -150 5 0 5
-5 1 -11 -6 -10 -9 -120 -4 -144 1 -5 2 -12 1 -15 -1 -3 -3 -72 -4 -154 l-2
-150 -60 -3 c-50 -2 -64 -7 -82 -28 -13 -15 -23 -40 -24 -58 0 -18 0 -109 0
-203 l0 -172 -51 -43 c-28 -24 -61 -53 -74 -64 -31 -28 -59 -51 -139 -119 -38
-32 -71 -62 -73 -67 -2 -5 -7 -9 -12 -9 -4 0 -30 -20 -56 -45 -56 -51 -8 -46
-409 -45 l-210 0 -3 -84 c-2 -60 1 -85 10 -88 7 -2 149 -3 314 -3 l302 1 35
27 c19 15 41 32 49 39 7 7 58 51 113 98 55 47 105 90 110 96 6 5 39 35 75 65
36 29 67 56 70 59 22 23 111 90 136 103 70 36 154 31 154 -10 0 -7 -74 -88
-165 -179 -91 -91 -168 -176 -171 -190 -9 -36 3 -72 32 -91 24 -15 71 -17 496
-17 445 -1 470 -2 483 -19 10 -14 11 -25 3 -42 l-11 -24 -350 -1 c-340 0 -352
-1 -373 -21 -28 -27 -36 -67 -18 -101 16 -30 24 -37 56 -44 35 -7 296 -7 308
1 5 3 10 3 10 -2 0 -4 39 -7 87 -6 49 2 117 2 153 2 36 0 74 0 85 1 11 1 27 1
35 1 8 0 69 -1 135 -1 68 -1 125 -6 132 -12 17 -13 17 -53 1 -65 -8 -6 -200
-9 -482 -9 -519 1 -501 3 -524 -63 -10 -28 2 -69 29 -96 6 -6 149 -11 382 -12
205 -1 384 -2 399 -2 21 -1 29 -7 34 -27 14 -56 12 -56 -402 -56 -244 -1 -387
-5 -402 -11 -27 -13 -50 -62 -44 -94 6 -32 39 -63 70 -64 15 -1 114 -1 220 -1
105 0 192 -4 192 -9 0 -5 -13 -10 -30 -10 -16 -1 -33 -2 -37 -3 -5 -1 -39 -6
-78 -10 -38 -5 -77 -9 -86 -11 -8 -2 -42 -6 -74 -9 -32 -4 -72 -9 -89 -11 -92
-15 -181 -23 -189 -18 -7 4 -71 23 -127 38 -8 2 -111 31 -229 65 l-214 61
-291 0 c-160 0 -298 0 -307 0 -13 -1 -16 -15 -17 -81 -1 -75 0 -82 21 -89 12
-5 26 -6 31 -3 5 2 74 4 155 3 80 -1 153 -2 161 -2 169 4 221 1 290 -19 41
-12 100 -28 130 -36 80 -21 192 -54 217 -65 l22 -8 0 -417 c0 -450 0 -454 54
-473 12 -4 277 -7 590 -7 l567 1 -6 -28 c-18 -83 7 -185 57 -238 60 -62 116
-88 204 -95 22 -1 67 -5 100 -9 33 -3 89 -8 125 -11 91 -7 149 -13 195 -18 22
-2 76 -7 120 -11 44 -3 98 -8 120 -10 90 -9 173 -16 216 -20 25 -2 74 -6 110
-10 35 -4 87 -8 114 -10 28 -2 77 -7 110 -11 33 -3 76 -8 95 -9 19 -1 76 -6
125 -10 149 -14 372 -9 475 11 14 2 39 7 55 9 17 3 50 10 75 15 25 6 61 12 80
14 19 3 71 12 115 21 44 8 95 18 114 21 18 3 43 8 55 10 11 3 34 7 49 9 15 2
68 12 118 21 l90 16 -5 32 c-2 17 -7 42 -10 56 -3 14 -7 37 -8 53 -1 15 -5 27
-9 27 -5 0 -163 -28 -424 -75 -16 -3 -79 -15 -140 -26 -60 -12 -125 -23 -143
-25 -18 -2 -36 -5 -40 -8 -25 -15 -322 -23 -427 -12 -22 3 -76 8 -120 11 -44
3 -96 8 -115 11 -19 3 -60 7 -90 9 -64 4 -154 12 -225 21 -27 3 -70 8 -95 9
-42 3 -148 12 -230 20 -19 2 -73 7 -120 10 -47 4 -96 8 -110 10 -26 4 -94 10
-220 20 -168 14 -192 22 -213 75 -13 33 -13 42 0 68 28 58 11 56 676 57 l612
0 46 27 c25 15 50 33 56 40 31 38 50 88 52 141 3 71 -10 96 -138 266 -92 121
-121 172 -116 201 13 67 63 105 119 89 20 -6 97 -75 231 -208 110 -109 209
-203 220 -208 15 -7 929 -11 966 -4 5 1 5 140 0 163 0 3 -202 6 -448 5 l-448
-2 -191 190 -191 190 0 982 c0 830 -2 985 -14 999 -21 26 -70 43 -111 39 -46
-5 -47 -3 -46 143 l1 112 88 0 c150 0 259 61 311 176 33 71 32 181 -1 249 -44
90 -132 155 -228 170 -24 4 -43 8 -43 10 0 2 9 19 19 37 62 104 32 261 -62
331 -61 46 -99 60 -167 60 -59 1 -100 -11 -171 -50 -4 -2 -10 12 -13 31 -21
113 -124 223 -238 257 -85 25 -210 6 -283 -43 -69 -47 -135 -144 -149 -218 -2
-14 -5 -26 -5 -27 -1 -1 -24 10 -53 24 -52 26 -153 38 -188 23 -65 -29 -96
-48 -122 -74 -76 -77 -96 -208 -46 -304 15 -29 24 -52 20 -53 -56 -5 -88 -12
-103 -20 -14 -7 -19 -6 -20 3 0 7 -2 105 -3 218 -3 241 -7 272 -53 366 -33 68
-128 184 -150 184 -6 0 -16 6 -22 14 -15 18 -92 54 -151 72 -43 12 -175 26
-182 18z m198 -209 c69 -34 118 -86 156 -165 l32 -65 1 -344 c1 -301 -1 -344
-15 -349 -23 -8 -72 -44 -92 -67 -27 -31 -59 -104 -60 -136 -1 -16 -4 -29 -7
-30 -3 -1 -78 -2 -166 -4 -88 -1 -163 -3 -167 -4 -4 0 -6 -38 -5 -83 l2 -83
170 0 170 0 0 42 c-1 49 10 48 18 -2 7 -44 63 -158 88 -181 10 -9 19 -20 19
-23 0 -4 -143 -7 -317 -6 l-318 0 -2 617 c-2 528 0 624 13 665 8 27 16 53 17
58 7 30 98 135 117 135 6 0 10 3 10 8 0 12 78 42 133 50 68 10 138 -1 203 -33z
m1287 -150 c44 -18 84 -66 93 -110 3 -20 7 -81 8 -138 1 -57 7 -111 14 -123
11 -21 54 -42 80 -38 6 1 16 2 21 3 5 0 44 35 87 77 98 95 123 109 169 94 41
-14 65 -48 65 -94 0 -29 -12 -46 -85 -121 -91 -94 -104 -119 -85 -164 19 -47
48 -55 183 -54 170 2 222 -24 232 -116 5 -51 -20 -98 -65 -121 -31 -16 -59
-19 -168 -19 -162 1 -191 -14 -192 -98 0 -28 -10 -29 -36 -5 -53 50 -167 92
-266 99 -137 10 -259 -28 -360 -110 l-55 -44 -33 63 c-84 161 -258 262 -462
268 -57 1 -67 10 -42 37 34 38 57 43 203 46 136 2 146 4 167 25 49 50 37 86
-60 187 -46 47 -86 95 -89 106 -17 54 32 116 94 120 29 2 45 -9 126 -88 82
-79 98 -90 129 -90 24 0 43 7 59 24 23 22 24 32 27 155 3 120 6 134 28 167 48
70 134 95 213 62z m-725 -947 c94 -33 183 -124 208 -213 29 -102 20 -160 -30
-182 -33 -15 -264 -9 -311 7 -141 50 -227 164 -240 314 -2 31 23 76 48 86 12
5 76 9 142 9 100 1 131 -3 183 -21z m883 -182 c84 -40 170 -135 181 -201 3
-20 -3 -20 -320 -20 -178 -1 -325 2 -328 6 -7 11 16 59 53 110 90 127 272 173
414 105z m-1961 -395 c25 -1 25 -1 22 -85 l-3 -83 -67 -6 c-37 -2 -74 -8 -83
-11 -14 -6 -16 5 -17 88 l-1 95 27 3 c15 2 43 2 62 1 19 -1 46 -2 60 -2z
m2328 -6 c7 -7 5 -193 -3 -205 -3 -6 -3 -10 2 -10 9 0 9 -341 -1 -365 -3 -9
-2 -14 3 -11 5 3 5 -9 1 -29 -4 -19 -5 -36 -2 -39 8 -9 5 -393 -3 -407 -5 -7
-4 -10 2 -6 7 5 8 -4 3 -28 -4 -19 -5 -36 -2 -39 2 -3 4 -94 3 -203 -2 -238
-2 -195 0 -332 l2 -115 -34 -4 c-68 -7 -189 -95 -189 -137 0 -8 -4 -15 -9 -15
-13 0 -29 -95 -24 -147 3 -43 35 -130 51 -143 6 -4 100 -129 179 -237 25 -35
30 -68 11 -80 -14 -8 -1765 -11 -1777 -3 -4 3 -7 178 -6 390 l0 385 32 33 c28
29 53 84 53 117 0 7 35 11 89 12 94 2 134 14 182 55 40 35 70 103 71 159 0 32
4 49 12 49 25 0 75 31 102 63 77 91 75 213 -4 293 -38 38 -80 56 -141 63 l-54
6 -2 45 c-3 76 -47 147 -115 184 -30 17 -85 25 -165 26 l-60 0 0 340 0 339 45
3 c83 6 1742 -1 1748 -7z m-1963 -332 l0 -338 -65 -5 c-119 -9 -107 -48 -107
341 l0 339 86 0 86 0 0 -337z m-345 -322 c0 -10 -9 -21 -20 -24 -24 -6 -25 1
-3 25 20 23 23 23 23 -1z m430 -965 c0 -3 -4 -8 -10 -11 -5 -3 -10 -1 -10 4 0
6 5 11 10 11 6 0 10 -2 10 -4z m-89 -213 c2 -35 4 -603 2 -603 -1 0 -39 37
-85 82 l-83 82 -1 218 c0 120 0 218 0 218 1 1 19 3 41 6 22 4 41 7 42 8 1 1
21 3 43 4 32 2 40 -1 41 -15z m-341 -230 l0 -206 -77 -78 c-43 -44 -81 -79
-84 -79 -5 0 -11 55 -10 88 1 12 1 91 0 117 0 8 1 35 1 60 1 24 -1 49 -5 55
-3 5 -3 10 2 10 4 0 7 17 6 37 -2 44 -3 70 -3 136 -1 39 2 47 17 47 20 1 97
11 100 14 1 1 13 2 27 4 l26 2 0 -207z m208 -493 c-6 -5 -209 -5 -243 -1 -5 0
19 30 55 66 l64 65 65 -63 c37 -34 63 -64 59 -67z"/>
<path d="M1623 9904 l2 -86 160 0 c88 1 165 1 170 2 6 0 10 34 10 83 l0 82
-172 3 -171 2 1 -86z"/>
<path d="M1622 9576 c-1 -110 -15 -101 170 -100 90 1 165 2 168 3 3 1 5 39 5
85 l1 84 -172 0 -172 0 0 -72z"/>
<path d="M3001 9900 c-5 -3 -12 -20 -16 -38 -10 -49 -58 -97 -115 -118 l-50
-18 0 -83 c0 -94 -4 -91 83 -68 51 13 105 42 147 77 39 33 90 113 95 148 0 3
4 11 8 18 5 6 6 12 3 12 -3 0 -2 11 3 23 16 41 -1 52 -79 52 -39 1 -74 -2 -79
-5z"/>
<path d="M3250 9791 c0 -66 41 -153 99 -211 53 -53 114 -85 189 -98 l52 -9 0
86 0 87 -44 12 c-56 15 -103 62 -118 118 l-12 44 -83 0 -83 0 0 -29z"/>
<path d="M10080 10550 c-7 -4 -9 -330 -8 -900 l3 -895 98 0 c56 0 102 4 106
10 5 5 8 410 7 900 l-1 890 -98 0 c-54 0 -102 -2 -107 -5z"/>
<path d="M10748 10484 c-2 -2 -13 -5 -24 -7 -34 -5 -65 -34 -79 -73 -39 -115
66 -203 183 -155 82 34 84 188 3 220 -31 12 -78 21 -83 15z"/>
<path d="M7263 10462 c-17 -3 -23 -10 -24 -30 -5 -155 -3 -1651 3 -1663 6 -13
43 -15 300 -13 161 2 302 5 313 8 215 54 300 97 408 208 144 147 207 337 207
623 1 143 -1 169 -16 260 -14 83 -71 234 -102 269 -9 10 -16 21 -15 25 3 10
-90 116 -130 147 -21 16 -43 34 -51 40 -27 25 -137 74 -208 94 -40 11 -113 23
-163 26 -103 6 -488 11 -522 6z m567 -196 c14 -3 38 -9 55 -12 34 -7 109 -39
128 -53 103 -81 161 -161 195 -271 35 -113 39 -147 40 -315 0 -243 -38 -383
-135 -502 -42 -51 -138 -123 -164 -123 -9 0 -19 -4 -21 -9 -8 -22 -144 -40
-302 -38 l-161 2 0 666 -1 665 171 -2 c93 -1 181 -5 195 -8z"/>
<path d="M9167 10033 c-59 -13 -144 -49 -165 -70 -7 -7 -17 -13 -21 -13 -9 0
-94 -82 -128 -122 -34 -42 -89 -167 -109 -248 -32 -137 -24 -355 19 -480 34
-100 119 -210 210 -272 50 -34 157 -84 157 -73 0 2 20 -3 44 -10 40 -12 220
-14 266 -2 127 31 219 84 293 168 26 29 47 57 47 60 0 4 -28 30 -62 57 l-63
50 -58 -54 c-91 -84 -143 -107 -257 -110 -79 -3 -106 0 -155 19 -96 35 -202
153 -220 246 -2 12 -6 24 -8 29 -3 4 -8 32 -11 62 l-6 56 431 -1 431 0 -6 125
c-2 69 -8 141 -11 160 -11 58 -55 181 -70 197 -8 8 -15 19 -15 24 0 6 -6 16
-12 23 -7 8 -22 24 -34 37 -62 71 -166 130 -255 145 -75 12 -173 11 -232 -3z
m236 -191 c55 -25 104 -73 134 -133 22 -44 53 -175 46 -194 -2 -7 -112 -10
-311 -9 -169 1 -310 2 -315 3 -10 2 -2 57 18 116 41 122 121 204 223 231 64
16 151 10 205 -14z"/>
<path d="M12808 10045 c-2 -2 -19 -6 -39 -9 -147 -23 -309 -149 -381 -296 -59
-121 -75 -198 -76 -362 -2 -227 54 -379 186 -504 151 -142 429 -184 636 -97
70 29 114 61 174 123 69 72 69 70 -4 127 l-65 51 -42 -42 c-44 -45 -116 -96
-139 -100 -7 -1 -20 -6 -28 -11 -29 -18 -194 -16 -248 3 -60 21 -119 61 -147
98 -11 15 -25 33 -32 39 -14 14 -48 90 -57 125 -4 14 -9 50 -12 80 l-6 56 408
-1 c225 0 419 1 430 3 20 4 21 9 19 100 -1 54 -6 117 -10 142 -5 25 -9 50 -10
55 -2 26 -19 84 -37 125 -65 151 -184 252 -339 286 -28 6 -176 13 -181 9z
m162 -196 c104 -31 195 -176 195 -309 l0 -35 -305 0 c-168 -1 -310 0 -316 3
-9 2 -8 18 1 60 54 231 223 343 425 281z"/>
<path d="M14045 10029 c-29 -9 -68 -27 -87 -39 -35 -25 -88 -80 -88 -92 0 -5
-4 -8 -10 -8 -5 0 -10 30 -12 67 l-3 66 -93 1 c-52 1 -99 -2 -105 -6 -14 -9
-16 -1247 -2 -1256 17 -11 204 -8 208 3 2 5 3 206 2 445 -2 375 0 440 14 470
47 107 159 162 310 154 l71 -4 0 99 c0 94 -1 100 -22 108 -39 13 -127 9 -183
-8z"/>
<path d="M10659 10025 c-1 0 -2 -286 -3 -635 l-2 -636 101 2 c55 1 103 2 108
3 4 0 7 286 7 634 l0 632 -105 0 c-58 0 -106 0 -106 0z"/>
<path d="M11113 10022 c-22 -3 -22 -3 -4 -45 10 -23 26 -67 36 -97 9 -30 23
-68 30 -85 7 -16 23 -59 35 -95 12 -36 26 -74 30 -85 4 -11 17 -46 29 -77 12
-32 30 -82 41 -110 10 -29 67 -185 125 -347 58 -161 110 -301 115 -311 7 -14
23 -17 84 -16 42 1 80 6 84 11 5 6 40 96 76 200 37 105 78 219 91 255 13 36
54 148 90 250 37 102 83 230 103 285 20 55 37 102 37 105 2 10 28 85 34 95 3
6 6 15 7 20 1 6 5 18 9 28 8 19 14 18 -119 19 -77 1 -90 -2 -99 -18 -6 -10
-12 -24 -13 -31 -1 -6 -43 -139 -94 -295 -101 -313 -166 -515 -183 -568 -6
-19 -14 -39 -17 -43 -5 -6 -71 174 -75 203 -1 6 -184 560 -192 580 -4 8 -7 17
-8 20 -6 24 -18 59 -25 75 -5 11 -11 32 -14 48 -5 22 -12 27 -39 28 -110 3
-155 4 -174 1z"/>
<path d="M14340 10013 c0 -9 14 -50 48 -143 3 -8 6 -17 7 -20 5 -14 18 -47 25
-65 5 -11 14 -38 21 -60 7 -22 18 -54 26 -72 7 -18 22 -58 33 -90 10 -32 26
-76 34 -98 59 -159 78 -212 81 -225 2 -8 15 -46 30 -85 63 -165 138 -376 138
-389 0 -6 -20 -60 -43 -119 -66 -166 -120 -208 -270 -212 l-65 -1 0 -75 c0
-40 2 -81 6 -89 8 -18 45 -24 140 -23 160 1 293 128 368 351 11 32 42 122 70
202 130 379 182 526 188 540 3 8 7 17 8 20 0 3 13 42 29 87 15 45 28 86 28 90
0 5 3 13 8 18 4 6 13 28 19 50 7 22 16 49 21 60 5 11 15 40 23 65 8 25 34 98
57 163 23 66 39 121 36 124 -4 5 -149 7 -208 4 -12 -1 -26 -31 -53 -118 -20
-65 -42 -136 -49 -158 -7 -22 -18 -56 -24 -75 -5 -19 -31 -102 -57 -183 -26
-82 -48 -156 -50 -165 -2 -10 -18 -57 -35 -107 -17 -49 -30 -92 -30 -95 0 -3
-3 -14 -7 -25 -4 -14 -21 22 -55 125 -27 80 -50 150 -52 155 -7 30 -18 62 -26
80 -5 11 -23 65 -40 120 -17 55 -35 109 -40 120 -7 17 -51 148 -55 165 -10 39
-19 67 -25 75 -4 6 -11 25 -15 42 -3 18 -11 36 -17 39 -20 13 -228 10 -228 -3z"/>
<path d="M12048 7675 c-1 0 -2 -144 -4 -320 -1 -176 -3 -324 -3 -329 -1 -6
-15 5 -32 22 -35 36 -119 86 -164 97 -51 13 -68 15 -150 18 -65 3 -94 -2 -156
-23 -79 -27 -81 -28 -161 -100 -76 -68 -144 -199 -174 -335 -10 -46 -14 -320
-5 -357 5 -18 14 -58 21 -88 36 -155 144 -301 269 -365 78 -40 220 -55 308
-34 21 5 46 11 56 14 36 8 104 47 147 85 51 44 57 40 56 -37 -1 -24 1 -44 4
-44 24 -5 192 -4 195 1 3 6 6 918 3 1050 0 13 1 213 2 610 l1 135 -106 0 c-58
0 -106 0 -107 0z m-211 -706 c70 -18 129 -58 178 -122 l28 -38 0 -293 c0 -322
2 -313 -65 -386 -67 -75 -189 -109 -309 -87 -72 13 -138 61 -184 133 -19 30
-35 61 -35 69 0 7 -4 16 -8 19 -14 8 -35 146 -35 227 1 198 41 324 133 416 61
62 189 88 297 62z"/>
<path d="M7242 7576 c-4 -7 -7 -1610 -3 -1687 1 -14 17 -16 113 -15 l112 2 1
374 0 375 305 2 c168 1 329 2 358 2 l52 1 0 90 c0 79 -2 90 -17 91 -10 0 -171
1 -358 1 l-341 1 0 291 1 291 405 0 c223 -1 410 0 416 2 7 3 10 37 9 94 l-1
90 -523 2 c-308 1 -525 -2 -529 -7z"/>
<path d="M8925 7159 c-288 -45 -474 -297 -476 -642 -1 -228 54 -380 183 -509
112 -111 247 -161 418 -154 91 4 180 23 192 40 4 6 8 7 8 3 0 -22 154 86 195
137 17 20 38 46 48 58 10 12 20 32 23 45 4 13 11 23 17 23 6 0 7 3 4 7 -4 3
-3 11 2 17 8 10 40 109 48 146 37 193 6 423 -74 552 -13 21 -23 40 -23 44 0 7
-40 51 -90 101 -58 57 -166 113 -252 129 -52 10 -168 11 -223 3z m189 -184
c124 -27 230 -166 262 -340 8 -47 9 -195 0 -245 -13 -78 -18 -95 -45 -154 -44
-97 -125 -174 -203 -192 -161 -39 -294 9 -380 136 -104 155 -112 439 -17 626
71 140 218 206 383 169z"/>
<path d="M10328 7165 c-2 -2 -21 -6 -43 -9 -56 -9 -71 -14 -147 -48 -38 -17
-68 -35 -68 -39 0 -5 -5 -9 -10 -9 -10 0 -77 -64 -115 -111 -118 -144 -163
-451 -100 -675 42 -145 155 -294 272 -357 171 -92 419 -85 577 17 189 121 275
304 271 577 -2 152 -7 185 -37 272 -66 192 -231 340 -413 372 -42 7 -182 15
-187 10z m158 -191 c153 -36 265 -226 264 -447 0 -197 -39 -317 -130 -409 -68
-67 -116 -83 -240 -83 -75 1 -92 5 -139 30 -140 77 -207 224 -204 451 2 135
37 271 85 329 55 67 101 104 148 120 3 1 12 4 20 8 38 15 133 16 196 1z"/>
</g>
</svg>
